<?xml version="1.0" standalone="no"?>
<!DOCTYPE svg PUBLIC "-//W3C//DTD SVG 20010904//EN"
 "http://www.w3.org/TR/2001/REC-SVG-20010904/DTD/svg10.dtd">
<svg version="1.0" xmlns="http://www.w3.org/2000/svg"
 width="500.000000pt" height="500.000000pt" viewBox="0 0 500.000000 500.000000"
 preserveAspectRatio="xMidYMid meet">

<g transform="translate(0.000000,500.000000) scale(0.100000,-0.100000)"
fill="#000000" stroke="none">
<path d="M2407 2929 c-113 -17 -214 -97 -265 -207 -22 -47 -26 -72 -27 -137 0
-69 5 -89 31 -145 67 -141 217 -227 358 -206 50 8 49 7 61 96 13 102 109 232
203 274 47 21 50 32 27 95 -56 159 -219 256 -388 230z m103 -304 c20 -24 15
-67 -10 -87 -30 -24 -46 -23 -76 7 -25 26 -26 52 -2 83 14 17 73 15 88 -3z"/>
<path d="M3484 2903 c3 -21 6 -57 6 -80 0 -32 4 -43 15 -43 17 0 19 24 9 108
-5 37 -11 52 -22 52 -11 0 -13 -8 -8 -37z"/>
<path d="M3622 2907 c-31 -33 -30 -100 0 -121 29 -20 82 -20 98 -1 18 21 4 32
-21 17 -43 -27 -87 15 -68 65 18 47 48 56 76 23 20 -23 33 -26 33 -7 0 46 -82
62 -118 24z"/>
<path d="M1323 2871 c-94 -26 -151 -60 -212 -127 -93 -102 -110 -187 -111
-551 l0 -243 200 0 200 0 0 248 c0 236 1 249 20 270 21 22 55 28 76 14 30 -20
34 -55 34 -292 l0 -240 193 2 192 3 5 253 c5 236 6 255 24 268 22 15 54 18 73
6 27 -17 33 -70 33 -298 l0 -234 195 0 195 0 0 120 c0 119 0 120 -23 120 -44
0 -140 40 -192 79 -62 47 -120 131 -142 203 -33 111 1 283 70 356 18 19 19 25
7 32 -20 12 -128 30 -182 30 -64 0 -163 -33 -209 -69 -44 -36 -50 -37 -73 -12
-9 10 -45 31 -79 47 -83 37 -191 42 -294 15z"/>
<path d="M3813 2795 l-42 -64 41 -30 c30 -22 45 -28 52 -20 8 7 7 13 -4 19
-47 27 -55 37 -41 54 12 14 16 14 41 -4 19 -14 31 -17 35 -10 7 11 -21 39 -37
40 -12 0 -10 28 2 35 6 4 22 0 35 -9 27 -18 45 -21 45 -7 0 7 -74 61 -82 61
-2 0 -22 -29 -45 -65z"/>
<path d="M3510 2596 c-94 -20 -189 -90 -222 -162 -6 -13 -14 -24 -17 -24 -3 0
-17 19 -31 41 -31 51 -118 115 -184 134 -132 39 -255 8 -353 -90 -51 -52 -64
-72 -82 -129 -12 -38 -21 -89 -21 -115 0 -158 114 -299 273 -338 115 -28 222
1 319 86 25 23 49 41 52 41 3 0 6 -27 6 -60 l0 -60 139 0 c117 0 140 2 145 16
3 9 6 91 6 184 0 140 3 171 16 184 21 21 47 20 67 -2 15 -16 17 -45 17 -200
l0 -182 146 0 146 0 -4 218 c-3 209 -4 219 -29 272 -49 104 -118 161 -228 186
-67 16 -88 16 -161 0z m-515 -302 c25 -25 16 -75 -17 -93 -25 -14 -29 -14 -55
5 -34 26 -40 48 -19 79 19 29 66 34 91 9z"/>
</g>
</svg>
